<svg width="56" height="71" viewBox="0 0 56 71" fill="none" xmlns="http://www.w3.org/2000/svg">
<g clip-path="url(#clip0)">
<path d="M38.08 0.416613C37.7481 0.0692547 37.3057 -0.13916 36.8494 -0.13916H9.27802C4.20346 -0.13916 0 4.05693 0 9.17004V61.5516C0 66.6648 4.20346 70.8608 9.27802 70.8608H46.6943C51.7827 70.8608 55.9723 66.6648 55.9723 61.5516V19.9659C55.9723 19.5213 55.7649 19.0906 55.4746 18.771L38.08 0.416613ZM38.5778 5.91877L50.2341 18.2152H42.6568C40.403 18.2152 38.5778 16.3951 38.5778 14.1303V5.91877ZM46.6943 67.4289H9.27802C6.08395 67.4289 3.40148 64.7751 3.40148 61.5516V9.17004C3.40148 5.96045 6.07012 3.29274 9.27802 3.29274H35.1486V14.1303C35.1486 18.2986 38.4948 21.6471 42.643 21.6471H52.557V61.5516C52.5709 64.7751 49.9022 67.4289 46.6943 67.4289Z" fill="#DDB96F"/>
<path d="M41.5496 29.2197H14.4483C13.5357 29.2197 12.7891 29.97 12.7891 30.887C12.7891 31.8041 13.5357 32.5544 14.4483 32.5544H41.5496C42.4622 32.5544 43.2088 31.8041 43.2088 30.887C43.2088 29.97 42.4622 29.2197 41.5496 29.2197Z" fill="#DDB96F"/>
<path d="M41.5496 38.6958H14.4483C13.5357 38.6958 12.7891 39.4461 12.7891 40.3631C12.7891 41.2801 13.5357 42.0304 14.4483 42.0304H41.5496C42.4622 42.0304 43.2088 41.2801 43.2088 40.3631C43.2088 39.4461 42.4622 38.6958 41.5496 38.6958Z" fill="#DDB96F"/>
<path d="M41.5496 48.1719H14.4483C13.5357 48.1719 12.7891 48.9222 12.7891 49.8392C12.7891 50.7562 13.5357 51.5065 14.4483 51.5065H41.5496C42.4622 51.5065 43.2088 50.7562 43.2088 49.8392C43.2088 48.9222 42.4622 48.1719 41.5496 48.1719Z" fill="#DDB96F"/>
</g>
<defs>
<clipPath id="clip0">
<rect width="56" height="71" fill="white"/>
</clipPath>
</defs>
</svg>
