<svg width="152" height="152" viewBox="0 0 152 152" fill="none" xmlns="http://www.w3.org/2000/svg">
<circle cx="76" cy="76" r="76" fill="#DDB96F"/>
<g clip-path="url(#clip0)">
<path d="M89.6721 104.022V101.427H107.477V45.4815C107.477 41.1169 103.939 37.5956 99.5915 37.5956H45.2334V35H99.5915C105.378 35 110.073 39.6952 110.073 45.4815V104.006H89.6721V104.022Z" fill="black"/>
<path d="M70.1972 104.12H49.7798V80.9915H35V43.827C35 39.0823 38.7694 35.098 43.5141 34.9988C48.3746 34.8996 52.3754 38.8343 52.3754 43.6948V101.525H70.1972V104.12ZM43.5472 37.5943C40.2242 37.677 37.5956 40.471 37.5956 43.7939V78.3794H49.7798V43.6782C49.7798 40.2726 46.9694 37.5117 43.5472 37.5943Z" fill="black"/>
<path d="M79.8851 102.6C71.9661 102.6 65.5186 96.1529 65.5186 88.234C65.5186 80.315 71.9661 73.8674 79.8851 73.8674C87.804 73.8674 94.2516 80.315 94.2516 88.234C94.2516 96.1529 87.804 102.6 79.8851 102.6ZM79.8851 76.4465C73.3879 76.4465 68.1141 81.7368 68.1141 88.2174C68.1141 94.6981 73.4044 99.9884 79.8851 99.9884C86.3657 99.9884 91.656 94.6981 91.656 88.2174C91.656 81.7368 86.3823 76.4465 79.8851 76.4465Z" fill="black"/>
<path d="M70.7261 117C70.4946 117 70.2466 116.934 70.0482 116.835C69.6019 116.587 69.3539 116.14 69.3704 115.661L70.0152 98.4343L72.743 98.5335L72.1974 113.297L79.174 109.114C79.389 108.982 79.6369 108.916 79.9015 108.916C80.166 108.916 80.414 108.982 80.6289 109.114L87.589 113.297L86.9607 98.55L89.6885 98.4509L90.416 115.661C90.4325 116.14 90.1845 116.603 89.7381 116.835C89.5398 116.95 89.2918 117 89.0603 117C88.7958 117 88.5478 116.934 88.3329 116.802L79.9015 111.743L71.47 116.802C71.2386 116.934 70.974 117 70.7261 117Z" fill="black"/>
<path d="M81.6544 54.194H61.9976V56.8391H81.6544V54.194Z" fill="black"/>
<path d="M96.4343 48.2092H61.9976V50.8544H96.4343V48.2092Z" fill="black"/>
<path d="M81.6544 60.1787H61.9976V62.8239H81.6544V60.1787Z" fill="black"/>
</g>
<defs>
<clipPath id="clip0">
<rect width="82" height="82" fill="white" transform="translate(35 35)"/>
</clipPath>
</defs>
</svg>
