<svg width="152" height="152" viewBox="0 0 152 152" fill="none" xmlns="http://www.w3.org/2000/svg">
<circle cx="76" cy="76" r="76" fill="#DDB96F"/>
<g clip-path="url(#clip0)">
<path d="M39.9597 63.9149C36.7524 60.7077 35 56.4589 35 51.9456C35 42.6048 42.6048 35 51.9456 35C61.2863 35 68.8911 42.6048 68.8911 51.9456C68.8911 56.4754 67.1222 60.7242 63.9314 63.9149L51.9621 75.8843L39.9597 63.9149ZM51.9456 37.5625C44.0266 37.5625 37.5625 44.0101 37.5625 51.9456C37.5625 55.781 39.0504 59.4016 41.7782 62.1129L51.9456 72.2802L62.1129 62.1129C64.8242 59.4016 66.3286 55.781 66.3286 51.9456C66.3121 44.0101 59.8645 37.5625 51.9456 37.5625Z" fill="black"/>
<path d="M51.9456 58.9883C48.0605 58.9883 44.9028 55.8307 44.9028 51.9456C44.9028 48.0605 48.0605 44.9028 51.9456 44.9028C55.8307 44.9028 58.9883 48.0605 58.9883 51.9456C58.9883 55.8307 55.8307 58.9883 51.9456 58.9883ZM51.9456 47.4488C49.4657 47.4488 47.4653 49.4657 47.4653 51.929C47.4653 54.3923 49.4823 56.4093 51.9456 56.4093C54.4089 56.4093 56.4258 54.3923 56.4258 51.929C56.4258 49.4657 54.4089 47.4488 51.9456 47.4488Z" fill="black"/>
<path d="M96.5166 108.039C94.2516 105.775 93.0117 102.766 93.0117 99.5584C93.0117 92.9455 98.3847 87.556 105.014 87.556C111.644 87.556 117.017 92.929 117.017 99.5584C117.017 102.766 115.777 105.775 113.512 108.039L105.031 116.521L96.5166 108.039ZM104.998 90.1185C99.7899 90.1185 95.5577 94.3508 95.5577 99.5584C95.5577 102.071 96.5331 104.452 98.3186 106.221L104.981 112.883L111.644 106.221C113.429 104.435 114.404 102.071 114.404 99.5584C114.438 94.3508 110.205 90.1185 104.998 90.1185Z" fill="black"/>
<path d="M65.3695 117C57.2521 117 50.6558 110.404 50.6558 102.286C50.6558 94.1689 57.2521 87.5726 65.3695 87.5726H74.5449C77.9009 87.5726 80.6453 84.8448 80.6453 81.4722C80.6453 78.1161 77.9175 75.3718 74.5449 75.3718H66.1465V72.8093H74.5449C79.3227 72.8093 83.2078 76.6943 83.2078 81.4722C83.2078 86.25 79.3227 90.1351 74.5449 90.1351H65.3695C58.6574 90.1351 53.2183 95.5907 53.2183 102.286C53.2183 108.982 58.6739 114.438 65.3695 114.438H91.7715V117H65.3695Z" fill="black"/>
</g>
<defs>
<clipPath id="clip0">
<rect width="82" height="82" fill="white" transform="translate(35 35)"/>
</clipPath>
</defs>
</svg>
