<svg width="152" height="152" viewBox="0 0 152 152" fill="none" xmlns="http://www.w3.org/2000/svg">
<circle cx="76" cy="76" r="76" fill="#DDB96F"/>
<path d="M75.9998 107.114C72.561 107.114 69.7671 104.32 69.7671 100.881C69.7671 97.4423 72.561 94.6484 75.9998 94.6484C79.4385 94.6484 82.2324 97.4423 82.2324 100.881C82.2324 104.32 79.4385 107.114 75.9998 107.114ZM75.9998 97.2274C73.9828 97.2274 72.3296 98.8641 72.3296 100.898C72.3296 102.915 73.9663 104.568 75.9998 104.568C78.0167 104.568 79.6699 102.931 79.6699 100.898C79.6699 98.8641 78.0167 97.2274 75.9998 97.2274Z" fill="black"/>
<path d="M76 117C69.8665 117 64.1794 113.379 61.5012 107.792L61.1706 107.114H54.9214V94.6649H61.154L61.4847 93.9871C61.5508 93.8714 61.6004 93.7391 61.6665 93.6234C65.4359 86.25 67.9157 79.0419 69.0565 72.1976L69.2218 71.1891L68.2464 70.875C64.8407 69.7673 62.2782 68.2298 61.0548 67.4363L60.7573 67.2379H56.0621C49.9121 67.2379 44.9194 62.2286 44.9028 56.0621V55.4669L44.4234 55.1032C41.5964 52.9871 39.9597 49.7302 39.9597 46.1593V45.5641L39.4802 45.2004C36.6367 43.0843 35 39.8274 35 36.2895V35H61.6996L71.5859 44.8863H80.4141L90.3004 35H117V36.2895C117 39.8274 115.363 43.0843 112.52 45.2169L112.04 45.5806V46.1758C112.04 49.7302 110.404 53.0036 107.577 55.1198L107.097 55.4669V56.0621C107.064 62.2286 101.989 67.2379 95.7726 67.2379H91.2427L90.9452 67.4363C89.7218 68.2464 87.1427 69.7673 83.7536 70.875L82.7782 71.1891L82.9436 72.1976C84.0843 79.0419 86.5641 86.25 90.3169 93.6234C90.3831 93.7391 90.4327 93.8548 90.4988 93.9871L90.8294 94.6649H97.0786V107.114H90.8294L90.4988 107.792C87.8206 113.379 82.1335 117 76 117ZM63.2867 105.394C65.221 110.8 70.3294 114.438 76 114.438C81.6706 114.438 86.779 110.8 88.7133 105.394L89.0109 104.551H94.4831V97.2274H89.0109C88.9778 97.1448 88.9613 97.0786 88.9282 96.996C88.6637 96.219 88.4488 95.6073 88.019 94.7806C84.2165 87.2915 81.6706 79.9347 80.4637 72.925L80.2653 71.7843L79.1246 71.9496C78.0665 72.0984 77.0085 72.1645 75.9835 72.1645C74.9585 72.1645 73.9004 72.0984 72.8423 71.9496L71.7016 71.7843L71.5032 72.925C70.2964 79.9347 67.7504 87.2915 63.948 94.7806C63.5347 95.6073 63.3032 96.219 63.0387 97.0125C63.0222 97.0786 62.9891 97.1613 62.9561 97.2274H57.4839V104.551H62.9561L63.2867 105.394ZM62.4436 65.2871L63.0056 65.6343C64.9565 66.8246 70.1145 69.6185 75.9835 69.6185C81.869 69.6185 87.027 66.8411 88.9613 65.6343L89.5234 65.2871V39.381L81.4391 47.4653H70.4948L62.4436 39.381V65.2871ZM92.119 64.6589H95.7891C99.5089 64.6589 102.931 62.2121 104.105 58.7238L104.75 56.8226L102.782 57.1698C102.154 57.2855 101.526 57.3351 100.898 57.3351H92.119V64.6589ZM47.8621 58.7073C49.0194 62.2617 52.3093 64.6589 56.0621 64.6589H59.8976V57.3351H51.119C50.4907 57.3351 49.846 57.2855 49.2012 57.1698L47.2504 56.8391L47.8621 58.7073ZM92.119 54.7726H100.898C104.65 54.7726 107.94 52.3754 109.098 48.821L109.709 46.9528L107.775 47.2835C107.13 47.3992 106.485 47.4488 105.857 47.4488H92.1355V54.7726H92.119ZM42.919 48.821C44.0762 52.3754 47.3661 54.7726 51.119 54.7726H59.8976V47.4488H46.1758C45.5476 47.4488 44.9028 47.3992 44.2581 47.2835L42.3238 46.9528L42.919 48.821ZM92.119 44.8863H105.841C109.478 44.8863 112.735 42.5718 113.958 39.1496L114.52 37.5625H92.119V44.8863ZM38.0585 39.1496C39.2819 42.5883 42.5387 44.8863 46.1758 44.8863H59.8976V37.5625H37.4964L38.0585 39.1496Z" fill="black"/>
<path d="M77.2896 59.7157H74.7271V62.2782H77.2896V59.7157Z" fill="black"/>
</svg>
