<svg width="25" height="33" viewBox="0 0 25 33" fill="none" xmlns="http://www.w3.org/2000/svg">
<path d="M2.38037 24.9579L7.08542 32.9998L9.46562 28.9345L4.75365 20.8926L2.38037 24.9579Z" fill="url(#paint0_linear)"/>
<path d="M24.4729 20.8925L22.0927 16.834L17.3877 24.8759L19.761 28.9344L24.4729 20.8925Z" fill="url(#paint1_linear)"/>
<path d="M14.6135 20.1426L12.2402 24.2079L17.3881 33.0001L19.7614 28.9348L14.6135 20.1426Z" fill="url(#paint2_linear)"/>
<path d="M0 20.8928L2.3802 24.9581L12.24 8.12391L9.85984 4.06543L0 20.8928Z" fill="url(#paint3_linear)"/>
<path d="M14.613 20.1425L12.2398 16.084L7.08496 24.8762L9.46516 28.9347L14.613 20.1425Z" fill="url(#paint4_linear)"/>
<path d="M22.093 16.8342L12.2401 0L9.85986 4.0653L12.2401 8.12379L19.7197 20.8927L22.093 16.8342Z" fill="url(#paint5_linear)"/>
<defs>
<linearGradient id="paint0_linear" x1="2.97309" y1="21.9112" x2="8.74575" y2="32.0537" gradientUnits="userSpaceOnUse">
<stop stop-color="#7C3A7C"/>
<stop offset="1" stop-color="#F43B47"/>
</linearGradient>
<linearGradient id="paint1_linear" x1="17.9803" y1="27.9212" x2="23.753" y2="17.7787" gradientUnits="userSpaceOnUse">
<stop stop-color="#7C3A7C"/>
<stop offset="1" stop-color="#F43B47"/>
</linearGradient>
<linearGradient id="paint2_linear" x1="12.8314" y1="21.1599" x2="19.035" y2="32.0593" gradientUnits="userSpaceOnUse">
<stop stop-color="#7C3A7C"/>
<stop offset="1" stop-color="#F43B47"/>
</linearGradient>
<linearGradient id="paint3_linear" x1="0.594559" y1="23.9419" x2="11.4069" y2="4.94479" gradientUnits="userSpaceOnUse">
<stop stop-color="#F43B47"/>
<stop offset="1" stop-color="#7C3A7C"/>
</linearGradient>
<linearGradient id="paint4_linear" x1="7.68169" y1="27.9215" x2="13.8852" y2="17.022" gradientUnits="userSpaceOnUse">
<stop stop-color="#7C3A7C"/>
<stop offset="1" stop-color="#F43B47"/>
</linearGradient>
<linearGradient id="paint5_linear" x1="10.4529" y1="1.01757" x2="21.2653" y2="20.0147" gradientUnits="userSpaceOnUse">
<stop stop-color="#F43B47"/>
<stop offset="1" stop-color="#7C3A7C"/>
</linearGradient>
</defs>
</svg>
