<svg width="152" height="152" viewBox="0 0 152 152" fill="none" xmlns="http://www.w3.org/2000/svg">
<circle cx="76" cy="76" r="76" fill="#DDB96F"/>
<path d="M75.2065 82.8443H65.9485V81.0093L70.313 76.3472C70.9081 75.6859 71.3545 75.1238 71.6521 74.6278C71.9331 74.1318 72.0819 73.6689 72.0819 73.2391C72.0819 72.6439 71.9331 72.1645 71.619 71.8173C71.3214 71.4702 70.8751 71.3048 70.313 71.3048C69.7013 71.3048 69.2218 71.5198 68.8747 71.9331C68.5275 72.3464 68.3456 72.8919 68.3456 73.5863H65.6509C65.6509 72.7597 65.8493 72.0157 66.246 71.3379C66.6428 70.6601 67.1884 70.131 67.9158 69.7343C68.6267 69.354 69.4533 69.1556 70.3626 69.1556C71.7513 69.1556 72.8424 69.4863 73.6029 70.1641C74.3799 70.8254 74.7602 71.7843 74.7602 72.9911C74.7602 73.6524 74.5948 74.3468 74.2477 75.0411C73.9005 75.7355 73.3053 76.5456 72.4622 77.4714L69.3872 80.7117H75.2065V82.8443Z" fill="black"/>
<path d="M84.7951 77.7689H86.3326V79.9347H84.7951V82.8609H82.1169V79.9347H76.5786L76.4629 78.2484L82.1004 69.354H84.8117V77.7689H84.7951ZM79.1246 77.7689H82.1169V72.9911L81.9351 73.3052L79.1246 77.7689Z" fill="black"/>
<path d="M74.6776 49.4718H77.3228V44.8262H74.6776V49.4718Z" fill="black"/>
<path d="M93.8342 56.299L95.7046 58.1694L98.9895 54.8846L97.1191 53.0142L93.8342 56.299Z" fill="black"/>
<path d="M102.54 74.6826L102.54 77.3278L107.185 77.3278L107.185 74.6826L102.54 74.6826Z" fill="black"/>
<path d="M95.6975 93.831L93.8271 95.7014L97.112 98.9863L98.9824 97.1159L95.6975 93.831Z" fill="black"/>
<path d="M77.3224 102.534H74.6772V107.18H77.3224V102.534Z" fill="black"/>
<path d="M58.1722 95.7008L56.3018 93.8304L53.0169 97.1153L54.8873 98.9857L58.1722 95.7008Z" fill="black"/>
<path d="M49.4609 77.3278L49.4609 74.6826L44.8154 74.6826L44.8154 77.3278L49.4609 77.3278Z" fill="black"/>
<path d="M56.2961 58.169L58.1665 56.2986L54.8816 53.0137L53.0112 54.8841L56.2961 58.169Z" fill="black"/>
<path d="M76 37.6452C81.1746 37.6452 86.2004 38.6536 90.9286 40.654C95.4915 42.5883 99.5915 45.3492 103.113 48.8871C106.634 52.4085 109.395 56.5085 111.329 61.0714C113.33 65.7996 114.338 70.8254 114.338 76C114.338 81.1746 113.33 86.2004 111.329 90.9286C109.395 95.4915 106.634 99.5915 103.113 103.113C99.5915 106.634 95.4915 109.395 90.9286 111.329C86.2004 113.33 81.1746 114.338 76 114.338C70.8254 114.338 65.7996 113.33 61.0714 111.329C56.5085 109.395 52.4085 106.634 48.8871 103.113C45.3657 99.5915 42.6048 95.4915 40.6706 90.9286C38.6536 86.2004 37.6452 81.1746 37.6452 76C37.6452 70.8254 38.6536 65.7996 40.654 61.0714C42.5883 56.5085 45.3492 52.4085 48.8871 48.8871C52.4085 45.3657 56.5085 42.6048 61.0714 40.6706C65.7996 38.6536 70.8254 37.6452 76 37.6452ZM76 35C53.3508 35 35 53.3508 35 76C35 98.6492 53.3508 117 76 117C98.6492 117 117 98.6492 117 76C117 53.3508 98.6492 35 76 35Z" fill="black"/>
</svg>
