<svg width="152" height="152" viewBox="0 0 152 152" fill="none" xmlns="http://www.w3.org/2000/svg">
<circle cx="76" cy="76" r="76" fill="#DDB96F"/>
<path d="M100.137 117C95.9544 117 92.2016 114.206 91.0113 110.189L90.6145 108.833H63.1048L62.7081 110.189C61.5177 114.189 57.7649 117 53.5823 117C49.3996 117 45.6468 114.206 44.4565 110.189L44.0597 108.833H35V57.8475H85.9855V75.0246H101.972L117 91.3915V108.816H109.66L109.263 110.172C108.073 114.206 104.32 117 100.137 117ZM100.137 100.666C96.3843 100.666 93.3258 103.725 93.3258 107.477C93.3258 111.23 96.3843 114.289 100.137 114.289C103.89 114.289 106.948 111.23 106.948 107.477C106.948 103.725 103.89 100.666 100.137 100.666ZM53.5657 100.666C49.8129 100.666 46.7544 103.725 46.7544 107.477C46.7544 111.23 49.8129 114.289 53.5657 114.289C57.3186 114.289 60.377 111.23 60.377 107.477C60.3935 103.725 57.3351 100.666 53.5657 100.666ZM100.137 97.9548C104.32 97.9548 108.073 100.749 109.263 104.766L109.66 106.122H114.289V92.4496L100.765 77.7193H85.969V106.122H90.598L90.9948 104.766C92.2182 100.765 95.9544 97.9548 100.137 97.9548ZM53.5657 97.9548C57.7484 97.9548 61.5012 100.749 62.6915 104.766L63.0883 106.122H83.2742V60.5588H37.6948V106.138H44.0266L44.4234 104.783C45.6468 100.765 49.3996 97.9548 53.5657 97.9548Z" fill="black"/>
<path d="M99.6791 92.3654H102.324V76.4449H99.6791V92.3654Z" fill="black"/>
<path d="M88.6284 95.7457V98.3909H93.2409V95.7457H88.6284Z" fill="black"/>
<path d="M114.987 93.0983V90.4531H85.6425V93.0983H114.987Z" fill="black"/>
<path d="M59.1649 49.6888H61.8101V35.0082H59.1649V49.6888Z" fill="black"/>
<path d="M60.4963 51.8781L62.3667 50.0078L55.3527 42.9938L53.4823 44.8642L60.4963 51.8781Z" fill="black"/>
<path d="M67.5022 44.8567L65.6318 42.9863L58.6179 50.0003L60.4883 51.8707L67.5022 44.8567Z" fill="black"/>
</svg>
