<svg width="48" height="66" viewBox="0 0 48 66" fill="none" xmlns="http://www.w3.org/2000/svg">
<path d="M24 0C10.7663 0 0 10.7227 0 23.9026C0 40.2593 21.4776 64.2718 22.3921 65.2861C23.251 66.2388 24.7506 66.2371 25.6079 65.2861C26.5224 64.2718 48 40.2593 48 23.9026C47.9997 10.7227 37.2335 0 24 0ZM24 35.9287C17.3418 35.9287 11.9251 30.5338 11.9251 23.9026C11.9251 17.2714 17.3419 11.8767 24 11.8767C30.6581 11.8767 36.0747 17.2715 36.0747 23.9027C36.0747 30.5339 30.6581 35.9287 24 35.9287Z" fill="#DDB96F"/>
</svg>
